<svg xmlns="http://www.w3.org/2000/svg" width="880" height="258" viewBox="0 0 880 258" role="img" aria-label="Sourabh Jha - AI Engineer"><rect x="1" y="1" width="878" height="256" rx="14" fill="#e1e2e7" stroke="#a8aecb" stroke-width="1.5"/><defs><linearGradient id="glow" x1="0" y1="0" x2="1" y2="1"><stop offset="0%" stop-color="#9854f1" stop-opacity=".16"/><stop offset="55%" stop-color="#2e7de9" stop-opacity=".06"/><stop offset="100%" stop-color="#007197" stop-opacity=".13"/></linearGradient></defs><rect x="1" y="1" width="878" height="256" rx="14" fill="url(#glow)"/><path d="M1 15a14 14 0 0 1 14-14h850a14 14 0 0 1 14 14v23H1z" fill="#d5d6db"/><line x1="1" y1="38" x2="879" y2="38" stroke="#a8aecb" stroke-width="1"/><circle cx="24" cy="20" r="6" fill="#f52a65"/><circle cx="44" cy="20" r="6" fill="#8c6c3e"/><circle cx="64" cy="20" r="6" fill="#587539"/><text x="440.0" y="25" text-anchor="middle" font-family="ui-monospace,'JetBrains Mono','SFMono-Regular',Menlo,Consolas,monospace" font-size="13" fill="#848cb5">jha-sk — ~/ai-engineering — zsh</text><path d="M17.3041 3.541h-3.6718l6.696 16.918H24Zm-10.6082 0L0 20.459h3.7442l1.3693-3.5527h7.0052l1.3693 3.5528h3.7442L10.5363 3.5409Zm-.3712 10.2232 2.2914-5.9456 2.2914 5.9456Z" fill="#9854f1" fill-opacity=".07" transform="translate(690.00,74.00) scale(6.2500)"/><polyline points="33,70.5 39.76,77 33,83.5" fill="none" stroke="#587539" stroke-width="2.2" stroke-linecap="round" stroke-linejoin="round"/><text x="32" y="82" xml:space="preserve" font-family="ui-monospace,'JetBrains Mono','SFMono-Regular',Menlo,Consolas,monospace" font-size="15"><tspan fill="#3760bf" font-weight="500">     whoami</tspan></text><text x="32" y="112" xml:space="preserve" font-family="ui-monospace,'JetBrains Mono','SFMono-Regular',Menlo,Consolas,monospace" font-size="15"><tspan fill="#9854f1" font-weight="700">Sourabh Jha</tspan><tspan fill="#848cb5" font-weight="400">  ::  </tspan><tspan fill="#007197" font-weight="600">AI Engineer</tspan></text><polyline points="33,140.5 39.76,147 33,153.5" fill="none" stroke="#587539" stroke-width="2.2" stroke-linecap="round" stroke-linejoin="round"/><text x="32" y="152" xml:space="preserve" font-family="ui-monospace,'JetBrains Mono','SFMono-Regular',Menlo,Consolas,monospace" font-size="15"><tspan fill="#3760bf" font-weight="500">     cat  focus.txt</tspan></text><line x1="32" y1="164" x2="332" y2="164" stroke="#a8aecb" stroke-width="1"/><path d="M13.796 0a6.93 6.93 0 0 0-4.91 2.019L5.451 5.455l3.273 3.27 3.432-3.432a2.284 2.284 0 0 1 3.277 0 2.28 2.28 0 0 1 0 3.275L12 12.001l3.273 3.273 3.433-3.435c2.692-2.692 2.692-7.127 0-9.82A6.92 6.92 0 0 0 13.796 0m-5.07 8.728-3.433 3.434c-2.692 2.693-2.692 7.126 0 9.819A6.92 6.92 0 0 0 10.203 24a6.93 6.93 0 0 0 4.911-2.02l3.432-3.432-3.271-3.272-3.433 3.433a2.284 2.284 0 0 1-3.277 0 2.28 2.28 0 0 1 0-3.276L12 12z" fill="#2e7de9" fill-opacity="1" transform="translate(32.00,174.00) scale(0.6250)"/><text x="53" y="186" font-family="ui-monospace,'JetBrains Mono','SFMono-Regular',Menlo,Consolas,monospace" font-size="14" font-weight="600" fill="#2e7de9">LLM systems</text><path d="m12 16.5 3.897-2.25v-4.5L12 7.5 8.103 9.75v4.5zM1.607 18 12 24l3.897-2.25v-4.5L12 19.5l-6.495-3.75v-7.5L12 4.5l6.495 3.75v15L22.393 21V6L12 0 1.607 6Z" fill="#b15c00" fill-opacity="1" transform="translate(171.00,174.00) scale(0.6250)"/><text x="192" y="186" font-family="ui-monospace,'JetBrains Mono','SFMono-Regular',Menlo,Consolas,monospace" font-size="14" font-weight="600" fill="#b15c00">RAG</text><path d="M16.153 12.826c-.63-.183-1.03.15-1.378.846-.58 1.13-1.643 1.644-2.888 1.594-1.245-.05-2.257-.63-2.788-1.776-.233-.498-.498-.664-1.046-.68-.93-.017-1.643.016-2.174 1.062-.631 1.261-2.258 1.693-3.619 1.261a3.234 3.234 0 0 1-2.257-3.22 3.198 3.198 0 0 1 2.29-3.02 3.276 3.276 0 0 1 3.702 1.327c.216.315.216.863.597.93.648.1 1.328.033 1.992.033.299 0 .316-.266.399-.465.58-1.295 1.61-1.959 2.987-1.975 1.361-.017 2.39.647 2.955 1.892.215.465.48.598.946.548.166-.017.332.016.498 0 .464-.083 1.062.282 1.344-.448.282-.73-.382-.913-.68-1.245-.847-.946-1.81-1.793-2.673-2.706-.415-.465-.763-.614-1.41-.415-1.876.614-3.619-.431-4.15-2.357-.448-1.676.714-3.535 2.44-3.917a3.293 3.293 0 0 1 3.95 2.457c.017.05.017.083.033.133.117.564.117 1.145-.132 1.626-.283.531-.133.83.249 1.195a152.61 152.61 0 0 1 3.286 3.27c.299.299.498.349.913.2 1.51-.565 2.97-.1 3.884 1.161a3.266 3.266 0 0 1-.067 3.801c-.896 1.195-2.357 1.643-3.834 1.079-.381-.15-.58-.1-.846.182a163.619 163.619 0 0 1-3.403 3.386c-.299.3-.415.532-.232.98a3.198 3.198 0 0 1-1.278 3.917A3.298 3.298 0 0 1 9.646 23c-1.062-1.062-1.228-2.688-.415-4.033a3.196 3.196 0 0 1 3.835-1.294c.498.182.78.083 1.145-.283 1.012-1.045 2.058-2.058 3.087-3.103.266-.266.68-.449.432-1.03-.233-.547-.631-.414-1.03-.431zM11.97 4.942c.913.016 1.643-.714 1.66-1.627v-.05a1.646 1.646 0 0 0-1.76-1.56 1.63 1.63 0 0 0-1.543 1.527 1.638 1.638 0 0 0 1.577 1.71zm.033 5.41a1.658 1.658 0 0 0-1.676 1.61v.084a1.73 1.73 0 0 0 1.643 1.66c.847.016 1.643-.78 1.677-1.627a1.648 1.648 0 0 0-1.577-1.71c-.017-.016-.05-.016-.067-.016zm7.088 1.694c.016.896.747 1.61 1.626 1.643a1.723 1.723 0 0 0 1.66-1.726 1.666 1.666 0 0 0-1.66-1.61 1.623 1.623 0 0 0-1.643 1.577c.017.05.017.083.017.116zM3.24 10.353a1.692 1.692 0 0 0-1.66 1.626c-.017.847.863 1.727 1.693 1.71a1.687 1.687 0 0 0 1.626-1.743 1.615 1.615 0 0 0-1.643-1.593Zm8.68 12c.98.033 1.71-.647 1.727-1.593a1.646 1.646 0 0 0-1.51-1.793 1.646 1.646 0 0 0-1.793 1.51v.233a1.609 1.609 0 0 0 1.543 1.66c0-.017.017-.017.033-.017z" fill="#587539" fill-opacity="1" transform="translate(243.00,174.00) scale(0.6250)"/><text x="264" y="186" font-family="ui-monospace,'JetBrains Mono','SFMono-Regular',Menlo,Consolas,monospace" font-size="14" font-weight="600" fill="#587539">agents</text><path d="M2.48 0a1.55 1.55 0 1 0 0 3.1 1.55 1.55 0 0 0 0-3.1zm19.04 0a1.55 1.55 0 1 0 0 3.101 1.55 1.55 0 0 0 0-3.101zM12 2.295a1.55 1.55 0 1 0 0 3.1 1.55 1.55 0 0 0 0-3.1zM2.48 5.272a2.48 2.48 0 1 0 0 4.96 2.48 2.48 0 0 0 0-4.96zm19.04 0a2.48 2.48 0 1 0 0 4.96 2.48 2.48 0 0 0 0-4.96zM12 8.496a1.55 1.55 0 1 0 0 3.1 1.55 1.55 0 0 0 0-3.1zm-9.52 3.907a1.55 1.55 0 1 0 0 3.1 1.55 1.55 0 0 0 0-3.1zm19.04 0a1.55 1.55 0 1 0 0 3.102 1.55 1.55 0 0 0 0-3.102zM12 13.767a2.48 2.48 0 1 0 0 4.962 2.48 2.48 0 0 0 0-4.962zm-9.52 3.907a2.48 2.48 0 1 0 .001 4.962 2.48 2.48 0 0 0 0-4.962zm19.04.93a1.55 1.55 0 1 0 0 3.102 1.55 1.55 0 0 0 0-3.101zM12 20.9a1.55 1.55 0 1 0 0 3.1 1.55 1.55 0 0 0 0-3.1Z" fill="#8c6c3e" fill-opacity="1" transform="translate(340.00,174.00) scale(0.6250)"/><text x="361" y="186" font-family="ui-monospace,'JetBrains Mono','SFMono-Regular',Menlo,Consolas,monospace" font-size="14" font-weight="600" fill="#8c6c3e">evals</text><path d="m23.6 0-8.721 4.59L9.829 24h7.41zM9.83 24V5.142H.4Z" fill="#007197" fill-opacity="1" transform="translate(429.00,174.00) scale(0.6250)"/><text x="450" y="186" font-family="ui-monospace,'JetBrains Mono','SFMono-Regular',Menlo,Consolas,monospace" font-size="14" font-weight="600" fill="#007197">inference @ scale</text><polyline points="33,208.5 39.76,215 33,221.5" fill="none" stroke="#587539" stroke-width="2.2" stroke-linecap="round" stroke-linejoin="round"/><rect x="54" y="207" width="9" height="16" fill="#2e7de9"><animate attributeName="opacity" values="1;1;0;0" dur="1.1s" repeatCount="indefinite"/></rect></svg>