<svg xmlns="http://www.w3.org/2000/svg" width="880" height="258" viewBox="0 0 880 258" role="img" aria-label="Sourabh Jha - AI Engineer"><rect x="1" y="1" width="878" height="256" rx="14" fill="#24283b" stroke="#3b4261" stroke-width="1.5"/><defs><linearGradient id="glow" x1="0" y1="0" x2="1" y2="1"><stop offset="0%" stop-color="#bb9af7" stop-opacity=".16"/><stop offset="55%" stop-color="#7aa2f7" stop-opacity=".06"/><stop offset="100%" stop-color="#7dcfff" stop-opacity=".13"/></linearGradient></defs><rect x="1" y="1" width="878" height="256" rx="14" fill="url(#glow)"/><path d="M1 15a14 14 0 0 1 14-14h850a14 14 0 0 1 14 14v23H1z" fill="#1f2335"/><line x1="1" y1="38" x2="879" y2="38" stroke="#3b4261" stroke-width="1"/><circle cx="24" cy="20" r="6" fill="#f7768e"/><circle cx="44" cy="20" r="6" fill="#e0af68"/><circle cx="64" cy="20" r="6" fill="#9ece6a"/><text x="440.0" y="25" text-anchor="middle" font-family="ui-monospace,'JetBrains Mono','SFMono-Regular',Menlo,Consolas,monospace" font-size="13" fill="#565f89">jha-sk — ~/ai-engineering — zsh</text><path d="M17.3041 3.541h-3.6718l6.696 16.918H24Zm-10.6082 0L0 20.459h3.7442l1.3693-3.5527h7.0052l1.3693 3.5528h3.7442L10.5363 3.5409Zm-.3712 10.2232 2.2914-5.9456 2.2914 5.9456Z" fill="#bb9af7" fill-opacity=".07" transform="translate(690.00,74.00) scale(6.2500)"/><polyline points="33,70.5 39.76,77 33,83.5" fill="none" stroke="#9ece6a" stroke-width="2.2" stroke-linecap="round" stroke-linejoin="round"/><text x="32" y="82" xml:space="preserve" font-family="ui-monospace,'JetBrains Mono','SFMono-Regular',Menlo,Consolas,monospace" font-size="15"><tspan fill="#c0caf5" font-weight="500">     whoami</tspan></text><text x="32" y="112" xml:space="preserve" font-family="ui-monospace,'JetBrains Mono','SFMono-Regular',Menlo,Consolas,monospace" font-size="15"><tspan fill="#bb9af7" font-weight="700">Sourabh Jha</tspan><tspan fill="#565f89" font-weight="400">  ::  </tspan><tspan fill="#7dcfff" font-weight="600">AI Engineer</tspan></text><polyline points="33,140.5 39.76,147 33,153.5" fill="none" stroke="#9ece6a" stroke-width="2.2" stroke-linecap="round" stroke-linejoin="round"/><text x="32" y="152" xml:space="preserve" font-family="ui-monospace,'JetBrains Mono','SFMono-Regular',Menlo,Consolas,monospace" font-size="15"><tspan fill="#c0caf5" font-weight="500">     cat  focus.txt</tspan></text><line x1="32" y1="164" x2="332" y2="164" stroke="#3b4261" stroke-width="1"/><path d="M13.85 0a4.16 4.16 0 0 0-2.95 1.217L1.456 10.66a.835.835 0 0 0 0 1.18.835.835 0 0 0 1.18 0l9.442-9.442a2.49 2.49 0 0 1 3.541 0 2.49 2.49 0 0 1 0 3.541L8.59 12.97l-.1.1a.835.835 0 0 0 0 1.18.835.835 0 0 0 1.18 0l.1-.098 7.03-7.034a2.49 2.49 0 0 1 3.542 0l.049.05a2.49 2.49 0 0 1 0 3.54l-8.54 8.54a1.96 1.96 0 0 0 0 2.755l1.753 1.753a.835.835 0 0 0 1.18 0 .835.835 0 0 0 0-1.18l-1.753-1.753a.266.266 0 0 1 0-.394l8.54-8.54a4.185 4.185 0 0 0 0-5.9l-.05-.05a4.16 4.16 0 0 0-2.95-1.218c-.2 0-.401.02-.6.048a4.17 4.17 0 0 0-1.17-3.552A4.16 4.16 0 0 0 13.85 0m0 3.333a.84.84 0 0 0-.59.245L6.275 10.56a4.186 4.186 0 0 0 0 5.902 4.186 4.186 0 0 0 5.902 0L19.16 9.48a.835.835 0 0 0 0-1.18.835.835 0 0 0-1.18 0l-6.985 6.984a2.49 2.49 0 0 1-3.54 0 2.49 2.49 0 0 1 0-3.54l6.983-6.985a.835.835 0 0 0 0-1.18.84.84 0 0 0-.59-.245" fill="#7aa2f7" fill-opacity="1" transform="translate(32.00,174.00) scale(0.6250)"/><text x="53" y="186" font-family="ui-monospace,'JetBrains Mono','SFMono-Regular',Menlo,Consolas,monospace" font-size="14" font-weight="600" fill="#7aa2f7">MCP tooling</text><path d="M11.3 6.6 L12.9 7.6 L6.3 17.5 L4.7 16.5 Z" fill="#ff9e64" fill-opacity="1" transform="translate(171.00,174.00) scale(0.6250)"/><path d="M11.1 7.6 L12.7 6.6 L19.3 17.5 L17.7 16.5 Z" fill="#ff9e64" fill-opacity="1" transform="translate(171.00,174.00) scale(0.6250)"/><path d="M9.2 5a2.8 2.8 0 1 0 5.6 0a2.8 2.8 0 1 0 -5.6 0" fill="#ff9e64" fill-opacity="1" transform="translate(171.00,174.00) scale(0.6250)"/><path d="M2.2 19a2.8 2.8 0 1 0 5.6 0a2.8 2.8 0 1 0 -5.6 0" fill="#ff9e64" fill-opacity="1" transform="translate(171.00,174.00) scale(0.6250)"/><path d="M16.2 19a2.8 2.8 0 1 0 5.6 0a2.8 2.8 0 1 0 -5.6 0" fill="#ff9e64" fill-opacity="1" transform="translate(171.00,174.00) scale(0.6250)"/><text x="192" y="186" font-family="ui-monospace,'JetBrains Mono','SFMono-Regular',Menlo,Consolas,monospace" font-size="14" font-weight="600" fill="#ff9e64">code intelligence</text><path d="m4.7144 15.9555 4.7174-2.6471.079-.2307-.079-.1275h-.2307l-.7893-.0486-2.6956-.0729-2.3375-.0971-2.2646-.1214-.5707-.1215-.5343-.7042.0546-.3522.4797-.3218.686.0608 1.5179.1032 2.2767.1578 1.6514.0972 2.4468.255h.3886l.0546-.1579-.1336-.0971-.1032-.0972L6.973 9.8356l-2.55-1.6879-1.3356-.9714-.7225-.4918-.3643-.4614-.1578-1.0078.6557-.7225.8803.0607.2246.0607.8925.686 1.9064 1.4754 2.4893 1.8336.3643.3035.1457-.1032.0182-.0728-.164-.2733-1.3539-2.4467-1.445-2.4893-.6435-1.032-.17-.6194c-.0607-.255-.1032-.4674-.1032-.7285L6.287.1335 6.6997 0l.9957.1336.419.3642.6192 1.4147 1.0018 2.2282 1.5543 3.0296.4553.8985.2429.8318.091.255h.1579v-.1457l.1275-1.706.2368-2.0947.2307-2.6957.0789-.7589.3764-.9107.7468-.4918.5828.2793.4797.686-.0668.4433-.2853 1.8517-.5586 2.9021-.3643 1.9429h.2125l.2429-.2429.9835-1.3053 1.6514-2.0643.7286-.8196.85-.9046.5464-.4311h1.0321l.759 1.1293-.34 1.1657-1.0625 1.3478-.8804 1.1414-1.2628 1.7-.7893 1.36.0729.1093.1882-.0183 2.8535-.607 1.5421-.2794 1.8396-.3157.8318.3886.091.3946-.3278.8075-1.967.4857-2.3072.4614-3.4364.8136-.0425.0304.0486.0607 1.5482.1457.6618.0364h1.621l3.0175.2247.7892.522.4736.6376-.079.4857-1.2142.6193-1.6393-.3886-3.825-.9107-1.3113-.3279h-.1822v.1093l1.0929 1.0686 2.0035 1.8092 2.5075 2.3314.1275.5768-.3218.4554-.34-.0486-2.2039-1.6575-.85-.7468-1.9246-1.621h-.1275v.17l.4432.6496 2.3436 3.5214.1214 1.0807-.17.3521-.6071.2125-.6679-.1214-1.3721-1.9246L14.38 17.959l-1.1414-1.9428-.1397.079-.674 7.2552-.3156.3703-.7286.2793-.6071-.4614-.3218-.7468.3218-1.4753.3886-1.9246.3157-1.53.2853-1.9004.17-.6314-.0121-.0425-.1397.0182-1.4328 1.9672-2.1796 2.9446-1.7243 1.8456-.4128.164-.7164-.3704.0667-.6618.4008-.5889 2.386-3.0357 1.4389-1.882.929-1.0868-.0062-.1579h-.0546l-6.3385 4.1164-1.1293.1457-.4857-.4554.0608-.7467.2307-.2429 1.9064-1.3114Z" fill="#bb9af7" fill-opacity="1" transform="translate(360.00,174.00) scale(0.6250)"/><text x="381" y="186" font-family="ui-monospace,'JetBrains Mono','SFMono-Regular',Menlo,Consolas,monospace" font-size="14" font-weight="600" fill="#bb9af7">LLM pipelines</text><path d="M10.984 13.836a.5.5 0 0 1-.353-.146l-.745-.743a.5.5 0 1 1 .706-.708l.392.391 1.181-1.18a.5.5 0 0 1 .708.707l-1.535 1.533a.504.504 0 0 1-.354.146zm9.353-.147l1.534-1.532a.5.5 0 0 0-.707-.707l-1.181 1.18-.392-.391a.5.5 0 1 0-.706.708l.746.743a.497.497 0 0 0 .706-.001zM4.527 7.452l2.557-1.585A1 1 0 0 0 7.09 4.17L4.533 2.56A1 1 0 0 0 3 3.406v3.196a1.001 1.001 0 0 0 1.527.85zm2.03-2.436L4 6.602V3.406l2.557 1.61zM24 12.5c0 1.93-1.57 3.5-3.5 3.5a3.503 3.503 0 0 1-3.46-3h-2.08a3.503 3.503 0 0 1-3.46 3 3.502 3.502 0 0 1-3.46-3h-.558c-.972 0-1.85-.399-2.482-1.042V17c0 1.654 1.346 3 3 3h.04c.244-1.693 1.7-3 3.46-3 1.93 0 3.5 1.57 3.5 3.5S13.43 24 11.5 24a3.502 3.502 0 0 1-3.46-3H8c-2.206 0-4-1.794-4-4V9.899A5.008 5.008 0 0 1 0 5c0-2.757 2.243-5 5-5s5 2.243 5 5a5.005 5.005 0 0 1-4.952 4.998A2.482 2.482 0 0 0 7.482 12h.558c.244-1.693 1.7-3 3.46-3a3.502 3.502 0 0 1 3.46 3h2.08a3.503 3.503 0 0 1 3.46-3c1.93 0 3.5 1.57 3.5 3.5zm-15 8c0 1.378 1.122 2.5 2.5 2.5s2.5-1.122 2.5-2.5-1.122-2.5-2.5-2.5S9 19.122 9 20.5zM5 9c2.206 0 4-1.794 4-4S7.206 1 5 1 1 2.794 1 5s1.794 4 4 4zm9 3.5c0-1.378-1.122-2.5-2.5-2.5S9 11.122 9 12.5s1.122 2.5 2.5 2.5 2.5-1.122 2.5-2.5zm9 0c0-1.378-1.122-2.5-2.5-2.5S18 11.122 18 12.5s1.122 2.5 2.5 2.5 2.5-1.122 2.5-2.5zm-13 8a.5.5 0 1 0 1 0 .5.5 0 0 0-1 0zm2 0a.5.5 0 1 0 1 0 .5.5 0 0 0-1 0zm12 0c0 1.93-1.57 3.5-3.5 3.5a3.503 3.503 0 0 1-3.46-3.002c-.007.001-.013.005-.021.005l-.506.017h-.017a.5.5 0 0 1-.016-.999l.506-.017c.018-.002.035.006.052.007A3.503 3.503 0 0 1 20.5 17c1.93 0 3.5 1.57 3.5 3.5zm-1 0c0-1.378-1.122-2.5-2.5-2.5S18 19.122 18 20.5s1.122 2.5 2.5 2.5 2.5-1.122 2.5-2.5z" fill="#9ece6a" fill-opacity="1" transform="translate(516.00,174.00) scale(0.6250)"/><text x="537" y="186" font-family="ui-monospace,'JetBrains Mono','SFMono-Regular',Menlo,Consolas,monospace" font-size="14" font-weight="600" fill="#9ece6a">automation</text><polyline points="33,208.5 39.76,215 33,221.5" fill="none" stroke="#9ece6a" stroke-width="2.2" stroke-linecap="round" stroke-linejoin="round"/><rect x="54" y="207" width="9" height="16" fill="#7aa2f7"><animate attributeName="opacity" values="1;1;0;0" dur="1.1s" repeatCount="indefinite"/></rect></svg>