<svg xmlns="http://www.w3.org/2000/svg" width="104" height="36" viewBox="0 0 104 36" role="img" aria-label="LinkedIn"><rect x="0.75" y="0.75" width="102.5" height="34.5" rx="9" fill="#292e42" stroke="#3b4261" stroke-width="1.5"/><path d="M20.447 20.452h-3.554v-5.569c0-1.328-.027-3.037-1.852-3.037-1.853 0-2.136 1.445-2.136 2.939v5.667H9.351V9h3.414v1.561h.046c.477-.9 1.637-1.85 3.37-1.85 3.601 0 4.267 2.37 4.267 5.455v6.286zM5.337 7.433c-1.144 0-2.063-.926-2.063-2.065 0-1.138.92-2.063 2.063-2.063 1.14 0 2.064.925 2.064 2.063 0 1.139-.925 2.065-2.064 2.065zm1.782 13.019H3.555V9h3.564v11.452zM22.225 0H1.771C.792 0 0 .774 0 1.729v20.542C0 23.227.792 24 1.771 24h20.451C23.2 24 24 23.227 24 22.271V1.729C24 .774 23.2 0 22.222 0h.003z" fill="#7dcfff" fill-opacity="1" transform="translate(13.00,11.00) scale(0.6250)"/><text x="35" y="23" font-family="ui-monospace,'JetBrains Mono','SFMono-Regular',Menlo,Consolas,monospace" font-size="13" font-weight="600" fill="#c0caf5">LinkedIn</text></svg>