<svg xmlns="http://www.w3.org/2000/svg" width="880" height="250" viewBox="0 0 880 250" role="img" aria-label="GitHub statistics for jha-sk"><rect x="1" y="1" width="878" height="248" rx="14" fill="#e1e2e7" stroke="#a8aecb" stroke-width="1.5"/><path d="M12 .297c-6.63 0-12 5.373-12 12 0 5.303 3.438 9.8 8.205 11.385.6.113.82-.258.82-.577 0-.285-.01-1.04-.015-2.04-3.338.724-4.042-1.61-4.042-1.61C4.422 18.07 3.633 17.7 3.633 17.7c-1.087-.744.084-.729.084-.729 1.205.084 1.838 1.236 1.838 1.236 1.07 1.835 2.809 1.305 3.495.998.108-.776.417-1.305.76-1.605-2.665-.3-5.466-1.332-5.466-5.93 0-1.31.465-2.38 1.235-3.22-.135-.303-.54-1.523.105-3.176 0 0 1.005-.322 3.3 1.23.96-.267 1.98-.399 3-.405 1.02.006 2.04.138 3 .405 2.28-1.552 3.285-1.23 3.285-1.23.645 1.653.24 2.873.12 3.176.765.84 1.23 1.91 1.23 3.22 0 4.61-2.805 5.625-5.475 5.92.42.36.81 1.096.81 2.22 0 1.606-.015 2.896-.015 3.286 0 .315.21.69.825.57C20.565 22.092 24 17.592 24 12.297c0-6.627-5.373-12-12-12" fill="#9854f1" fill-opacity="1" transform="translate(26.00,22.00) scale(0.7083)"/><text x="52" y="36" font-family="ui-monospace,'JetBrains Mono','SFMono-Regular',Menlo,Consolas,monospace" font-size="14" font-weight="700" fill="#9854f1">github.com/jha-sk</text><text x="854" y="36" text-anchor="end" font-family="ui-monospace,'JetBrains Mono','SFMono-Regular',Menlo,Consolas,monospace" font-size="12" fill="#848cb5">112 followers · 41 public repos</text><line x1="26" y1="50" x2="854" y2="50" stroke="#a8aecb" stroke-width="1"/><circle cx="34" cy="72" r="4" fill="#587539"/><text x="50" y="76" font-family="ui-monospace,'JetBrains Mono','SFMono-Regular',Menlo,Consolas,monospace" font-size="13" fill="#6172b0">commits</text><text x="408" y="76" text-anchor="end" font-family="ui-monospace,'JetBrains Mono','SFMono-Regular',Menlo,Consolas,monospace" font-size="15" font-weight="700" fill="#587539">1,284</text><circle cx="34" cy="101" r="4" fill="#8c6c3e"/><text x="50" y="105" font-family="ui-monospace,'JetBrains Mono','SFMono-Regular',Menlo,Consolas,monospace" font-size="13" fill="#6172b0">stars earned</text><text x="408" y="105" text-anchor="end" font-family="ui-monospace,'JetBrains Mono','SFMono-Regular',Menlo,Consolas,monospace" font-size="15" font-weight="700" fill="#8c6c3e">342</text><circle cx="34" cy="130" r="4" fill="#2e7de9"/><text x="50" y="134" font-family="ui-monospace,'JetBrains Mono','SFMono-Regular',Menlo,Consolas,monospace" font-size="13" fill="#6172b0">pull requests merged</text><text x="408" y="134" text-anchor="end" font-family="ui-monospace,'JetBrains Mono','SFMono-Regular',Menlo,Consolas,monospace" font-size="15" font-weight="700" fill="#2e7de9">96</text><circle cx="34" cy="159" r="4" fill="#b15c00"/><text x="50" y="163" font-family="ui-monospace,'JetBrains Mono','SFMono-Regular',Menlo,Consolas,monospace" font-size="13" fill="#6172b0">issues opened</text><text x="408" y="163" text-anchor="end" font-family="ui-monospace,'JetBrains Mono','SFMono-Regular',Menlo,Consolas,monospace" font-size="15" font-weight="700" fill="#b15c00">57</text><circle cx="34" cy="188" r="4" fill="#9854f1"/><text x="50" y="192" font-family="ui-monospace,'JetBrains Mono','SFMono-Regular',Menlo,Consolas,monospace" font-size="13" fill="#6172b0">reviews given</text><text x="408" y="192" text-anchor="end" font-family="ui-monospace,'JetBrains Mono','SFMono-Regular',Menlo,Consolas,monospace" font-size="15" font-weight="700" fill="#9854f1">73</text><circle cx="34" cy="217" r="4" fill="#007197"/><text x="50" y="221" font-family="ui-monospace,'JetBrains Mono','SFMono-Regular',Menlo,Consolas,monospace" font-size="13" fill="#6172b0">repos contributed to</text><text x="408" y="221" text-anchor="end" font-family="ui-monospace,'JetBrains Mono','SFMono-Regular',Menlo,Consolas,monospace" font-size="15" font-weight="700" fill="#007197">18</text><line x1="448" y1="68" x2="448" y2="224" stroke="#a8aecb" stroke-width="1"/><text x="482" y="82" font-family="ui-monospace,'JetBrains Mono','SFMono-Regular',Menlo,Consolas,monospace" font-size="13" font-weight="700" fill="#3760bf">most used languages</text><rect x="482.00" y="96" width="169.86" height="12" rx="6" fill="#2e7de9"/><rect x="653.86" y="96" width="77.61" height="12" rx="6" fill="#9854f1"/><rect x="733.47" y="96" width="45.62" height="12" rx="6" fill="#007197"/><rect x="781.09" y="96" width="28.13" height="12" rx="6" fill="#587539"/><rect x="811.22" y="96" width="21.44" height="12" rx="6" fill="#b15c00"/><rect x="834.66" y="96" width="17.34" height="12" rx="6" fill="#8c6c3e"/><rect x="482" y="96" width="372" height="12" rx="6" fill="none" stroke="#a8aecb" stroke-width="1"/><circle cx="486.0" cy="132" r="4.5" fill="#2e7de9"/><text x="500.0" y="136" font-family="ui-monospace,'JetBrains Mono','SFMono-Regular',Menlo,Consolas,monospace" font-size="12.5" fill="#3760bf">Python</text><text x="649.0" y="136" text-anchor="end" font-family="ui-monospace,'JetBrains Mono','SFMono-Regular',Menlo,Consolas,monospace" font-size="12.5" fill="#848cb5">46.2%</text><circle cx="677.0" cy="132" r="4.5" fill="#9854f1"/><text x="691.0" y="136" font-family="ui-monospace,'JetBrains Mono','SFMono-Regular',Menlo,Consolas,monospace" font-size="12.5" fill="#3760bf">TypeScript</text><text x="840.0" y="136" text-anchor="end" font-family="ui-monospace,'JetBrains Mono','SFMono-Regular',Menlo,Consolas,monospace" font-size="12.5" fill="#848cb5">21.4%</text><circle cx="486.0" cy="158" r="4.5" fill="#007197"/><text x="500.0" y="162" font-family="ui-monospace,'JetBrains Mono','SFMono-Regular',Menlo,Consolas,monospace" font-size="12.5" fill="#3760bf">Go</text><text x="649.0" y="162" text-anchor="end" font-family="ui-monospace,'JetBrains Mono','SFMono-Regular',Menlo,Consolas,monospace" font-size="12.5" fill="#848cb5">12.8%</text><circle cx="677.0" cy="158" r="4.5" fill="#587539"/><text x="691.0" y="162" font-family="ui-monospace,'JetBrains Mono','SFMono-Regular',Menlo,Consolas,monospace" font-size="12.5" fill="#3760bf">Rust</text><text x="840.0" y="162" text-anchor="end" font-family="ui-monospace,'JetBrains Mono','SFMono-Regular',Menlo,Consolas,monospace" font-size="12.5" fill="#848cb5">8.1%</text><circle cx="486.0" cy="184" r="4.5" fill="#b15c00"/><text x="500.0" y="188" font-family="ui-monospace,'JetBrains Mono','SFMono-Regular',Menlo,Consolas,monospace" font-size="12.5" fill="#3760bf">SQL</text><text x="649.0" y="188" text-anchor="end" font-family="ui-monospace,'JetBrains Mono','SFMono-Regular',Menlo,Consolas,monospace" font-size="12.5" fill="#848cb5">6.3%</text><circle cx="677.0" cy="184" r="4.5" fill="#8c6c3e"/><text x="691.0" y="188" font-family="ui-monospace,'JetBrains Mono','SFMono-Regular',Menlo,Consolas,monospace" font-size="12.5" fill="#3760bf">Other</text><text x="840.0" y="188" text-anchor="end" font-family="ui-monospace,'JetBrains Mono','SFMono-Regular',Menlo,Consolas,monospace" font-size="12.5" fill="#848cb5">5.2%</text></svg>